<svg width="13" height="10" viewBox="0 0 13 10" fill="none" xmlns="http://www.w3.org/2000/svg">
<path d="M11.328 0.466176C11.4048 0.387838 11.4964 0.325604 11.5975 0.283119C11.6986 0.240633 11.8072 0.21875 11.9169 0.21875C12.0266 0.21875 12.1352 0.240633 12.2363 0.283119C12.3374 0.325604 12.4291 0.387838 12.5059 0.466176C12.8276 0.791301 12.8321 1.31668 12.5171 1.64743L5.86498 9.51118C5.78945 9.59411 5.6978 9.66077 5.59563 9.70707C5.49346 9.75336 5.38291 9.77833 5.27076 9.78044C5.15861 9.78254 5.04721 9.76174 4.94337 9.71932C4.83953 9.67689 4.74544 9.61372 4.66685 9.53368L0.619103 5.43193C0.462994 5.27272 0.375549 5.05865 0.375549 4.83568C0.375549 4.61271 0.462994 4.39863 0.619103 4.23943C0.695879 4.16109 0.787514 4.09885 0.88864 4.05637C0.989766 4.01388 1.09835 3.992 1.20804 3.992C1.31773 3.992 1.42631 4.01388 1.52744 4.05637C1.62857 4.09885 1.7202 4.16109 1.79698 4.23943L5.23048 7.71905L11.3055 0.490926C11.3125 0.482232 11.32 0.473967 11.328 0.466176Z" fill="#799B9E"/>
</svg>
