<svg width="20" height="16" viewBox="0 0 20 16" fill="none" xmlns="http://www.w3.org/2000/svg">
<path d="M17.288 0.947385C17.4074 0.825525 17.55 0.728718 17.7073 0.662629C17.8646 0.596541 18.0335 0.5625 18.2041 0.5625C18.3747 0.5625 18.5437 0.596541 18.701 0.662629C18.8583 0.728718 19.0008 0.825525 19.1202 0.947385C19.6207 1.45313 19.6277 2.27038 19.1377 2.78488L8.79 15.0174C8.67251 15.1464 8.52994 15.2501 8.37101 15.3221C8.21208 15.3941 8.04012 15.433 7.86566 15.4362C7.6912 15.4395 7.51791 15.4072 7.35638 15.3412C7.19486 15.2752 7.04849 15.1769 6.92625 15.0524L0.62975 8.67189C0.386915 8.42424 0.250889 8.09123 0.250889 7.74439C0.250889 7.39754 0.386915 7.06453 0.62975 6.81688C0.74918 6.69503 0.891722 6.59822 1.04903 6.53213C1.20634 6.46604 1.37525 6.432 1.54587 6.432C1.7165 6.432 1.88541 6.46604 2.04272 6.53213C2.20003 6.59822 2.34257 6.69503 2.462 6.81688L7.803 12.2296L17.253 0.985885C17.2639 0.97236 17.2756 0.959503 17.288 0.947385Z" fill="#799B9E"/>
</svg>
