<svg width="30" height="30" viewBox="0 0 30 30" fill="none" xmlns="http://www.w3.org/2000/svg">
<path fill-rule="evenodd" clip-rule="evenodd" d="M15 0.333252C6.89998 0.333252 0.333313 6.89992 0.333313 14.9999C0.333313 23.0999 6.89998 29.6666 15 29.6666C23.1 29.6666 29.6666 23.0999 29.6666 14.9999C29.6666 6.89992 23.1 0.333252 15 0.333252ZM12.0573 10.6093C11.8144 10.3578 11.68 10.021 11.6831 9.67138C11.6861 9.32179 11.8263 8.98737 12.0736 8.74016C12.3208 8.49295 12.6552 8.35272 13.0048 8.34969C13.3544 8.34665 13.6912 8.48104 13.9426 8.72392L19.276 14.0573C19.5259 14.3073 19.6664 14.6464 19.6664 14.9999C19.6664 15.3535 19.5259 15.6925 19.276 15.9426L13.9426 21.2759C13.6912 21.5188 13.3544 21.6532 13.0048 21.6502C12.6552 21.6471 12.3208 21.5069 12.0736 21.2597C11.8263 21.0125 11.6861 20.678 11.6831 20.3285C11.68 19.9789 11.8144 19.6421 12.0573 19.3906L16.448 14.9999L12.0573 10.6093Z" fill="#20585E"/>
</svg>
