<svg width="30" height="30" viewBox="0 0 30 30" fill="none" xmlns="http://www.w3.org/2000/svg">
<path fill-rule="evenodd" clip-rule="evenodd" d="M15 0.333252C6.89998 0.333252 0.333313 6.89992 0.333313 14.9999C0.333313 23.0999 6.89998 29.6666 15 29.6666C23.1 29.6666 29.6666 23.0999 29.6666 14.9999C29.6666 6.89992 23.1 0.333252 15 0.333252ZM17.9426 10.6093C18.1855 10.3578 18.3199 10.021 18.3169 9.67138C18.3138 9.32179 18.1736 8.98737 17.9264 8.74016C17.6792 8.49295 17.3448 8.35272 16.9952 8.34969C16.6456 8.34665 16.3088 8.48104 16.0573 8.72392L10.724 14.0573C10.474 14.3073 10.3336 14.6464 10.3336 14.9999C10.3336 15.3535 10.474 15.6925 10.724 15.9426L16.0573 21.2759C16.3088 21.5188 16.6456 21.6532 16.9952 21.6502C17.3448 21.6471 17.6792 21.5069 17.9264 21.2597C18.1736 21.0125 18.3138 20.678 18.3169 20.3285C18.3199 19.9789 18.1855 19.6421 17.9426 19.3906L13.552 14.9999L17.9426 10.6093Z" fill="#20585E"/>
</svg>
