<svg width="32" height="32" viewBox="0 0 32 32" fill="none" xmlns="http://www.w3.org/2000/svg">
<path fill-rule="evenodd" clip-rule="evenodd" d="M16 1.33325C7.89998 1.33325 1.33331 7.89992 1.33331 15.9999C1.33331 24.0999 7.89998 30.6666 16 30.6666C24.1 30.6666 30.6666 24.0999 30.6666 15.9999C30.6666 7.89992 24.1 1.33325 16 1.33325ZM18.9426 11.6093C19.1855 11.3578 19.3199 11.021 19.3169 10.6714C19.3138 10.3218 19.1736 9.98737 18.9264 9.74016C18.6792 9.49295 18.3448 9.35272 17.9952 9.34969C17.6456 9.34665 17.3088 9.48104 17.0573 9.72392L11.724 15.0573C11.474 15.3073 11.3336 15.6464 11.3336 15.9999C11.3336 16.3535 11.474 16.6925 11.724 16.9426L17.0573 22.2759C17.3088 22.5188 17.6456 22.6532 17.9952 22.6502C18.3448 22.6471 18.6792 22.5069 18.9264 22.2597C19.1736 22.0125 19.3138 21.678 19.3169 21.3285C19.3199 20.9789 19.1855 20.6421 18.9426 20.3906L14.552 15.9999L18.9426 11.6093Z" fill="#799B9E"/>
</svg>
