<svg width="37" height="37" viewBox="0 0 37 37" fill="none" xmlns="http://www.w3.org/2000/svg">
<path fill-rule="evenodd" clip-rule="evenodd" d="M11.1 0C8.1561 0 5.33277 1.16946 3.25111 3.25111C1.16946 5.33277 0 8.1561 0 11.1L0 25.9C0 28.8439 1.16946 31.6672 3.25111 33.7489C5.33277 35.8305 8.1561 37 11.1 37H25.9C28.8439 37 31.6672 35.8305 33.7489 33.7489C35.8305 31.6672 37 28.8439 37 25.9V11.1C37 8.1561 35.8305 5.33277 33.7489 3.25111C31.6672 1.16946 28.8439 0 25.9 0L11.1 0ZM9.86667 18.5C9.86667 16.2103 10.7762 14.0144 12.3953 12.3953C14.0144 10.7762 16.2103 9.86667 18.5 9.86667C20.7897 9.86667 22.9856 10.7762 24.6047 12.3953C26.2238 14.0144 27.1333 16.2103 27.1333 18.5C27.1333 20.7897 26.2238 22.9856 24.6047 24.6047C22.9856 26.2238 20.7897 27.1333 18.5 27.1333C16.2103 27.1333 14.0144 26.2238 12.3953 24.6047C10.7762 22.9856 9.86667 20.7897 9.86667 18.5V18.5ZM27.1333 9.86667H29.6V7.4H27.1333V9.86667Z" fill="#20585E"/>
</svg>
