<svg width="93" height="77" viewBox="0 0 93 77" fill="none" xmlns="http://www.w3.org/2000/svg">
<path d="M37.7 7.69999L33.8 0.799985C17.3 8.3 0.200016 28.4 0.200016 52.4C0.200016 67.1 10.1 77 21.2 77C33.2 77 38.3 67.1 38.3 60.2C38.3 50.9 32 43.4 21.8 43.4C17.9 43.4 14 44.9 11.6 47C11.9 29.9 23.3 15.5 37.7 7.69999ZM91.7 7.69999L87.8 0.799985C71.3 8.3 54.2 28.4 54.2 52.4C54.2 67.1 64.1 77 75.2 77C87.2 77 92.3 67.1 92.3 60.2C92.3 50.9 86 43.4 75.8 43.4C71.9 43.4 68 44.9 65.6 47C65.9 29.9 77.3 15.5 91.7 7.69999Z" fill="#C8AF88"/>
</svg>
